<?xml version="1.0" encoding="UTF-8" standalone="no"?>
<!-- Created with Inkscape (http://www.inkscape.org/) -->

<svg
   width="210mm"
   height="297mm"
   viewBox="0 0 210 297"
   version="1.1"
   id="svg1"
   xml:space="preserve"
   inkscape:version="1.4.2 (f4327f4, 2025-05-13)"
   sodipodi:docname="svetaines_logo.svg"
   xmlns:inkscape="http://www.inkscape.org/namespaces/inkscape"
   xmlns:sodipodi="http://sodipodi.sourceforge.net/DTD/sodipodi-0.dtd"
   xmlns="http://www.w3.org/2000/svg"
   xmlns:svg="http://www.w3.org/2000/svg"><sodipodi:namedview
     id="namedview1"
     pagecolor="#505050"
     bordercolor="#eeeeee"
     borderopacity="1"
     inkscape:showpageshadow="0"
     inkscape:pageopacity="0"
     inkscape:pagecheckerboard="0"
     inkscape:deskcolor="#505050"
     inkscape:document-units="mm"
     inkscape:zoom="0.35945918"
     inkscape:cx="243.42124"
     inkscape:cy="399.21084"
     inkscape:window-width="1920"
     inkscape:window-height="1009"
     inkscape:window-x="-8"
     inkscape:window-y="-8"
     inkscape:window-maximized="1"
     inkscape:current-layer="layer1" /><defs
     id="defs1" /><g
     inkscape:label="Layer 1"
     inkscape:groupmode="layer"
     id="layer1"><g
       id="g10"
       transform="matrix(5.3435869,0,0,7.4327159,-308.26445,-816.1715)"
       style="fill:#ffffff;stroke:#ffffff;stroke-opacity:1"><g
         id="g6"
         style="fill:#ffffff;stroke:#ffffff;stroke-opacity:1"><path
           style="fill:#ffffff;stroke:#ffffff;stroke-width:0.265;stroke-linejoin:round;stroke-dasharray:none;stroke-opacity:1"
           d="m 71.631407,119.29395 c -3.06464,0.11395 -5.37031,0.091 -8.832712,0.87407 -3.663971,1.14186 1.130051,2.97712 -0.04601,2.73722 -2.065393,-0.70889 -4.494,-1.2605 -4.508363,-2.43819 0.164956,-2.12081 9.278899,-4.49128 10.488846,-4.57738 z"
           id="path1-5"
           sodipodi:nodetypes="cccccc" /><path
           style="fill:#ffffff;stroke:#ffffff;stroke-width:0.265;stroke-linejoin:round;stroke-dasharray:none;stroke-opacity:1"
           d="m 83.226995,119.42406 c 3.06464,0.11395 5.37031,0.091 8.832712,0.87407 3.663971,1.14186 -1.130051,2.97712 0.04601,2.73722 2.065393,-0.70889 4.494,-1.2605 4.508363,-2.43819 -0.164956,-2.12081 -9.278899,-4.49128 -10.488846,-4.57738 z"
           id="path1"
           sodipodi:nodetypes="cccccc" /><path
           style="fill:#ffffff;stroke:#ffffff;stroke-width:0.264999;stroke-linecap:round;stroke-linejoin:round;stroke-dasharray:none;stroke-opacity:1"
           d="m 77.075956,110.11807 c 0.551458,3.55687 2.070856,4.57867 5.543494,5.0365 -3.627453,0.2643 -5.00528,2.40153 -5.501438,5.5744 -0.470425,-2.05053 -0.566112,-4.861 -5.101894,-5.59543 2.100362,-0.43728 4.338399,-0.43278 5.059838,-5.01547 z"
           id="path2"
           sodipodi:nodetypes="ccccc" /></g><g
         id="g9"
         transform="translate(0.3507995,0.52916667)"
         style="fill:#ffffff;stroke:#ffffff;stroke-opacity:1"><g
           id="g2"
           transform="matrix(1.1228199,0,0,1.0038483,62.691667,123.35186)"
           style="fill:#ffffff;stroke:#ffffff;stroke-opacity:1">
	<g
   id="g1"
   style="fill:#ffffff;stroke:#ffffff;stroke-opacity:1">
		<path
   style="fill:#ffffff;stroke:#ffffff;stroke-opacity:1"
   d="m 6.6943643,25.616196 c 0.067411,-1.080361 0.049982,-1.088807 0.099323,-1.079116 0.2490723,0.04892 3.4547467,-0.111192 3.5319947,-1.662052 L 10.518199,2.2295524 C 3.5325642,2.3060963 3.9129642,1.9512581 2.3686892,6.2913142 2.1384188,6.7596876 1.8330777,6.7485538 1.8773981,6.0741582 2.0439066,3.5405045 2.1165048,1.8090802 2.202799,0.35645321 l 11.757102,-0.0115965 c 0,1.06162069 0.0032,25.97462229 -0.0051,25.28837129 z"
   id="path1-51"
   sodipodi:nodetypes="cscccscccc" />
	</g>
</g><g
           id="g8"
           transform="matrix(-1.1228199,0,0,1.0038483,91.465136,123.35186)"
           style="fill:#ffffff;stroke:#ffffff;stroke-opacity:1">
	<g
   id="g7"
   style="fill:#ffffff;stroke:#ffffff;stroke-opacity:1">
		<path
   style="fill:#ffffff;stroke:#ffffff;stroke-opacity:1"
   d="m 6.6943643,25.616196 c 0.067411,-1.080361 0.049982,-1.088807 0.099323,-1.079116 0.2490723,0.04892 3.4547467,-0.111192 3.5319947,-1.662052 L 10.518199,2.2295524 C 3.5325642,2.3060963 3.9129642,1.9512581 2.3686892,6.2913142 2.1384188,6.7596876 1.8330777,6.7485538 1.8773981,6.0741582 2.0439066,3.5405045 2.1165048,1.8090802 2.202799,0.35645321 l 11.757102,-0.0115965 c 0,1.06162069 0.0032,25.97462229 -0.0051,25.28837129 z"
   id="path6"
   sodipodi:nodetypes="cscccscccc" />
	</g>
</g></g></g></g></svg>
